# xmcd
#
# Track frame offsets: 
#        150
#        14355
#        26863
#        39892
#        47994
#        53024
#        57015
#        64247
#        79284
#        91804
#        103767
#        117405
#        129541
#        142686
#        148517
#        153808
#        156849
#        171098
#        182645
#        193750
#        201551
#        210946
#        228294
#        242196
#        246607
#        257069
#        266992
#        278839
#        293466
#        318668
#        329061
#
# Disc length: 4499 seconds
#
# Revision: 1
# Processed by: cddbd v1.5.2PL0 Copyright (c) Steve Scherf et al.
# Submitted via: ExactAudioCopy v1.3
#
DISCID=cd11911f
DTITLE=Various Artist - Louisiana Hayride CD 08 (Live Jan-Apr 1958)
DYEAR=2017
DGENRE=Country
TTITLE0=James O'Gwynn - (theme and intro) Two Little Hearts
TTITLE1=Carl Belew and The Four B's - Stop The World And Let Me Off
TTITLE2=Johnny Horton - Honky Tonk Hardwood Floor
TTITLE3=Mallie Ann and Slim - Somebody Else Is Taking My Place
TTITLE4=Dobber Johnson - Swamp Fever
TTITLE5=outro theme
TTITLE6=Johnny Cash - Big River
TTITLE7=Osborne Brothers - Making Plans
TTITLE8=Tony Douglas - (theme and intro) Old Blue Monday
TTITLE9=Ann Jones - It Takes A Whole Lot Of Lovin'
TTITLE10=Jimmy Martin - Hit Parade Of Love
TTITLE11=Lucy Lynn - Got A Lot Of Livin' To Do
TTITLE12=Mallie Ann and Slim - When They Ring Them Golden Bells
TTITLE13=Jimmy Martin and Dobber Johnson and JD Crowe - Pike County Brea
TTITLE13=kdown
TTITLE14=outro talk and theme
TTITLE15=theme and intro
TTITLE16=Slim Whitman - (talk marking 520 broadcasts) Careless Hands
TTITLE17=Jerry Kennedy - Oo Wee Baby
TTITLE18=Betty Amos - I Gotta Know
TTITLE19=Werly Fairburn - There'll Be No Teardrops Tonight
TTITLE20=Jimmy Martin - Sophronie (outro theme)
TTITLE21=Jimmy Martin - (theme and intro to 10th anniversary show) Ocean
TTITLE21=Of Diamonds
TTITLE22=Martha Lynn - (talk about the night's format) Conchita Of Lar
TTITLE22=edo
TTITLE23=Jerry Jericho - Cajun Pete jingle for Dr. Tichenor mouthwash
TTITLE24=Jerry Kennedy - Teenage Love Is Misery
TTITLE25=Jerry Kennedy - Be Bop A Lula
TTITLE26=Margie Singleton - Teddy
TTITLE27=Hayride Band - Texas Playboy Rag (talk about Elvis telegram)
TTITLE28=Webb Pierce - (talk about Horace Logan) In The Jailhouse Now
TTITLE29=Webb Pierce - Love Love Love
TTITLE30=Webb Pierce - I Don't Care
EXTD=
EXTT0=
EXTT1=
EXTT2=
EXTT3=
EXTT4=
EXTT5=
EXTT6=
EXTT7=
EXTT8=
EXTT9=
EXTT10=
EXTT11=
EXTT12=
EXTT13=
EXTT14=
EXTT15=
EXTT16=
EXTT17=
EXTT18=
EXTT19=
EXTT20=
EXTT21=
EXTT22=
EXTT23=
EXTT24=
EXTT25=
EXTT26=
EXTT27=
EXTT28=
EXTT29=
EXTT30=
PLAYORDER=
